<svg fill-rule="evenodd" stroke-miterlimit="10" stroke-linecap="square" overflow="hidden" width="105px" height="105px" viewBox="0 0 105 105" style="position: absolute; display: block; transform-origin: 0px 0px; transform: translate(0px, 0px);"><g id="block_view_LigoMQ6XLFB"><clipPath id="crop_block_view_LigoMQ6XLFB_image-editor"><path clip-rule="evenodd" d="M 14 0 L 91 0 C 98.73198649763111 0 105 6.26801350236889 105 14 L 105 91 C 105 98.73198649763111 98.73198649763111 105 91 105 L 14 105 C 6.26801350236889 105 0 98.73198649763111 0 91 L 0 14 C 0 6.26801350236889 6.26801350236889 0 14 0"></path></clipPath><image data-status="success" preserveAspectRatio="none" x="0" y="0" clip-path="url(#crop_block_view_LigoMQ6XLFB_image-editor)" width="105px" height="105px" transform="matrix(1, 0, 0, 1, 0, 0)" xlink:href="https://internal-api-drive-stream.feishu.cn/space/api/box/stream/download/v2/cover/FEgGbp3Jvo2kTix8DITcOvoknle?width=360&amp;height=360&amp;policy=near"></image><path stroke-miterlimit="8" stroke-linejoin="round" fill="#000000" transform="translate(0, 0)" stroke-linecap="round" stroke-opacity="0" stroke-width="0px" stroke="#000000" d="M 14 0 L 91 0 C 98.73198649763111 0 105 6.26801350236889 105 14 L 105 91 C 105 98.73198649763111 98.73198649763111 105 91 105 L 14 105 C 6.26801350236889 105 0 98.73198649763111 0 91 L 0 14 C 0 6.26801350236889 6.26801350236889 0 14 0" stroke-dasharray="" fill-opacity="0"></path></g></svg>