<?xml version="1.0" standalone="no"?><!DOCTYPE svg PUBLIC "-//W3C//DTD SVG 1.1//EN" "http://www.w3.org/Graphics/SVG/1.1/DTD/svg11.dtd"><svg t="1713370955773" class="icon" viewBox="0 0 1024 1024" version="1.1" xmlns="http://www.w3.org/2000/svg" p-id="11814" xmlns:xlink="http://www.w3.org/1999/xlink" width="64" height="64"><path d="M789.333333 0a64 64 0 0 1 63.701334 57.856l0.298666 6.144v106.666667h106.666667a64 64 0 0 1 63.701333 57.856l0.298667 6.144v725.333333a64 64 0 0 1-64 64h-725.333333a64 64 0 0 1-64-64V853.333333h-106.666667a64 64 0 0 1-63.701333-57.856L0 789.333333v-725.333333a64 64 0 0 1 57.856-63.701333l6.144-0.298667h725.333333z m149.333334 256h-682.666667v682.666667h682.666667v-682.666667z m-170.666667-85.333333v-85.333334h-682.666667v682.666667h85.333334v-533.333333a64 64 0 0 1 57.856-63.701334l6.144-0.298666H768z" fill="#78f681" p-id="11815"></path><path d="M384 426.666667m42.666667 0l341.333333 0q42.666667 0 42.666667 42.666666l0 0q0 42.666667-42.666667 42.666667l-341.333333 0q-42.666667 0-42.666667-42.666667l0 0q0-42.666667 42.666667-42.666666Z" fill="#78f681" p-id="11816"></path><path d="M384 682.666667m42.666667 0l341.333333 0q42.666667 0 42.666667 42.666666l0 0q0 42.666667-42.666667 42.666667l-341.333333 0q-42.666667 0-42.666667-42.666667l0 0q0-42.666667 42.666667-42.666666Z" fill="#78f681" p-id="11817"></path></svg>