<?xml version="1.0" standalone="no"?><!DOCTYPE svg PUBLIC "-//W3C//DTD SVG 1.1//EN" "http://www.w3.org/Graphics/SVG/1.1/DTD/svg11.dtd"><svg t="1712133171746" class="icon" viewBox="0 0 1024 1024" version="1.1" xmlns="http://www.w3.org/2000/svg" p-id="5728" width="64" height="64" xmlns:xlink="http://www.w3.org/1999/xlink"><path d="M568.886857 0C820.242286 0 1024 203.757714 1024 455.113143v455.113143A113.773714 113.773714 0 0 1 910.226286 1024h-455.131429C203.776 1024 0 820.242286 0 568.886857V455.131429C0 203.757714 203.757714 0 455.113143 0h113.773714z m145.188572 212.48a53.979429 53.979429 0 0 0-64.804572 33.974857l-1.243428 4.022857-31.872 118.4-2.267429-0.182857-2.285714-0.054857-99.401143-0.018286 24.32-90.368a53.668571 53.668571 0 0 0-38.144-65.755428 53.979429 53.979429 0 0 0-64.786286 33.956571l-1.261714 4.022857-31.817143 118.144-158.866286 0.018286a42.605714 42.605714 0 0 0-42.697143 42.514286c0 22.089143 16.932571 40.246857 38.582858 42.313143l4.114285 0.182857h135.990857l-38.125714 141.696h-97.865143a42.605714 42.605714 0 0 0-42.697143 42.532571c0 22.089143 16.932571 40.246857 38.582858 42.313143l4.114285 0.182857h74.971429l-23.844572 88.777143a53.668571 53.668571 0 0 0 38.125715 65.755429 53.979429 53.979429 0 0 0 64.804571-33.956572l1.243429-4.022857 31.36-116.553143h104.009143l-23.844572 88.777143a53.668571 53.668571 0 0 0 38.125714 65.755429 53.979429 53.979429 0 0 0 64.786286-33.956572l1.243429-4.022857 31.36-116.553143h138.368a42.605714 42.605714 0 0 0 42.697143-42.496 42.587429 42.587429 0 0 0-38.582858-42.313143l-4.114285-0.201143-115.474286-0.018285 85.321143-317.074286a53.668571 53.668571 0 0 0-38.125714-65.773714zM573.44 456.411429l-37.668571 140.434285h-102.765715l37.668572-140.434285h102.765714z m225.28-87.771429a43.885714 43.885714 0 1 0 0 87.771429 43.885714 43.885714 0 0 0 0-87.771429z" fill="#4ab9f3" p-id="5729"></path></svg>