<?xml version="1.0" standalone="no"?><!DOCTYPE svg PUBLIC "-//W3C//DTD SVG 1.1//EN" "http://www.w3.org/Graphics/SVG/1.1/DTD/svg11.dtd"><svg t="1706439644887" class="icon" viewBox="0 0 1024 1024" version="1.1" xmlns="http://www.w3.org/2000/svg" p-id="18373" xmlns:xlink="http://www.w3.org/1999/xlink" width="32" height="32"><path d="M515.2 28.16h-390.4C73.6 28.16 32 69.696 32 120.96v390.4c0 51.2 41.6 92.8 92.8 92.8h390.4c51.2 0 92.8-41.6 92.8-92.8v-390.4c0-51.264-41.6-92.8-92.8-92.8z m-390.4 57.6h390.4a35.2 35.2 0 0 1 35.2 35.2v390.4a35.2 35.2 0 0 1-35.2 35.2h-390.4a35.2 35.2 0 0 1-35.2-35.2v-390.4a35.2 35.2 0 0 1 35.2-35.2zM718.336 60.16a224 224 0 0 1 224 224 32 32 0 1 1-64 0 160 160 0 0 0-149.504-159.68l-10.496-0.32h-12.224a32 32 0 0 1-5.76-63.488l5.76-0.512h12.16zM272.64 956.16a224 224 0 0 1-224-224 32 32 0 1 1 64 0 160 160 0 0 0 149.44 159.616l10.496 0.384h12.288a32 32 0 0 1 5.76 63.488l-5.76 0.512h-12.288z" fill="#ffffff" p-id="18374"></path><path d="M335.36 504.576V386.304h133.632V219.648H335.36V153.216h-31.872v66.432H170.624v166.656h132.864v118.272h31.872z m-31.872-148.992H202.112v-105.6h101.376v105.6z m134.016 0H335.36v-105.6h102.144v105.6zM589.44 828.16l29.568-80.64h116.352l31.104 80.64h38.016l-112.896-281.088h-28.8L554.88 828.16h34.56z m134.016-111.36H630.528l45.312-124.032 47.616 124.032z" fill="#ffffff" p-id="18375"></path><path d="M904.192 351.36a92.8 92.8 0 0 1 92.416 83.84l0.384 8.96v448a92.8 92.8 0 0 1-83.84 92.352l-8.96 0.448h-448a92.8 92.8 0 0 1-92.352-83.84l-0.448-8.96V588.8h57.6v303.36c0 17.472 12.8 32 29.504 34.752l5.76 0.448h448c17.472 0 32-12.8 34.688-29.504l0.448-5.76v-448c0-17.472-12.8-32-29.44-34.688l-5.76-0.448H578.752v-57.6h325.44z" fill="#ffffff" p-id="18376"></path></svg>