<?xml version="1.0" standalone="no"?><!DOCTYPE svg PUBLIC "-//W3C//DTD SVG 1.1//EN" "http://www.w3.org/Graphics/SVG/1.1/DTD/svg11.dtd"><svg t="1705155592037" class="icon" viewBox="0 0 1024 1024" version="1.1" xmlns="http://www.w3.org/2000/svg" p-id="15902" xmlns:xlink="http://www.w3.org/1999/xlink" width="32" height="32"><path d="M1.086357 416.657889v0zM512.508872 525.327884c282.45279 0 511.376774-80.047349 511.376775-178.837214h-0.217272V178.837214h0.217272C1023.885647 80.07022 794.938792 0 512.508872 0 233.303718 0 6.369482 78.263437 1.246452 175.486661H1.143534v171.530034c0.823344 98.515416 229.450009 178.311189 511.365338 178.311189zM81.190883 226.945671a34.306007 34.306007 0 1 1-34.306007 34.306007 34.306007 34.306007 0 0 1 34.306007-34.306007z" p-id="15903" fill="#24e92a"></path><path d="M1021.895898 425.428792c-15.231867 93.987024-237.98077 168.556847-510.530559 168.556847S16.078082 519.415815 0.846215 425.428792H0v171.530034c1.749606 98.240968 230.444884 177.705116 512.303036 177.705116s510.541995-79.464147 512.303037-177.705116v-171.530034zM81.190883 633.780607a34.306007 34.306007 0 1 1 34.306007-34.306007 34.306007 34.306007 0 0 1-34.306007 34.306007z" p-id="15904" fill="#24e92a"></path><path d="M511.365339 843.310262c-272.538354 0-495.287257-74.569824-510.519124-168.556848H0v171.530035c1.749606 98.252404 230.444884 177.705116 512.303036 177.705116s510.541995-79.452712 512.303037-177.705116v-171.530035h-2.755916c-15.186126 93.987024-237.935029 168.556847-510.484818 168.556848zM81.190883 883.10523a34.306007 34.306007 0 1 1 34.306007-34.306007 34.306007 34.306007 0 0 1-34.306007 34.306007z" p-id="15905" fill="#24e92a"></path></svg>