<?xml version="1.0" standalone="no"?><!DOCTYPE svg PUBLIC "-//W3C//DTD SVG 1.1//EN" "http://www.w3.org/Graphics/SVG/1.1/DTD/svg11.dtd"><svg t="1705154838170" class="icon" viewBox="0 0 1059 1024" version="1.1" xmlns="http://www.w3.org/2000/svg" p-id="1204" xmlns:xlink="http://www.w3.org/1999/xlink" width="33.09375" height="32"><path d="M1031.942336 385.912675c-12.059771-32.15939-39.319879-56.278932-72.735494-64.318779L742.50783 263.053757 596.408728 50.123424C579.826543 21.60709 550.305228 2.88932 517.392103 0c-33.918106 1.633094-64.193157 21.60709-79.142248 52.133385l-120.974578 192.956338-162.053175 49.49531-79.142247 27.008863c-30.903163 6.783621-56.530177 28.139466-68.841194 57.283913-8.416715 33.918106-1.130604 69.846174 19.973996 97.734394L168.663722 656.001298 161.000743 913.276415c-6.155508 31.028786 0.251245 63.188176 17.964034 89.443302 12.813507 14.195356 31.154409 21.983958 50.123423 21.230222 20.978977-1.004981 41.706708-5.527395 61.052592-13.567242l209.036032-84.920888 237.301121 88.061453c13.94411 4.773659 28.390711 7.411734 43.088557 7.66298 29.646937 0 79.142248-13.567242 83.036549-104.141148l-12.813507-231.522481 153.762081-206.52358c23.868297-24.622033 34.294974-59.293875 28.390711-93.086358" fill="#cdcdcd" p-id="1205"></path></svg>