<?xml version="1.0" standalone="no"?><!DOCTYPE svg PUBLIC "-//W3C//DTD SVG 1.1//EN" "http://www.w3.org/Graphics/SVG/1.1/DTD/svg11.dtd"><svg t="1706440046991" class="icon" viewBox="0 0 1088 1024" version="1.1" xmlns="http://www.w3.org/2000/svg" p-id="23452" xmlns:xlink="http://www.w3.org/1999/xlink" width="34" height="32"><path d="M0 959.960563L199.838244 1024l70.899376-70.899377-134.078821-134.078821L0 959.960563z m249.21781-480.015781a73.183357 73.183357 0 0 0-21.579811 76.19933l26.099771 85.659247-101.859105 101.879105 192.458309 192.458308 101.719106-101.719106 85.479248 26.15977c27.459759 8.399926 57.299496-0.02 76.29933-21.55981l71.099375-83.279268-346.676953-346.676953-83.03927 70.879377z m806.61291-321.397175l-126.398889-126.39889c-40.97964-40.97964-106.759062-43.039622-150.238679-4.699958L381.096651 367.365771l339.537015 339.557016L1060.530679 308.806286c38.359663-43.479618 36.299681-109.25904-4.699959-150.258679z" fill="#ffffff" p-id="23453"></path></svg>