<svg width="48" height="48" viewBox="0 0 48 48" fill="none" xmlns="http://www.w3.org/2000/svg" id="block_view_tX4ZWBYaGIW" stroke-opacity="1" style="position: absolute; transform-origin: 0px 0px; transform: matrix(0.874541, 0, 0, 0.874541, 0, 0);"><svg width="48" height="48" viewBox="0 0 48 48" fill="none" xmlns="http://www.w3.org/2000/svg"><path fill-rule="evenodd" clip-rule="evenodd" d="M5 10C5 8.89543 5.89543 8 7 8L41 8C42.1046 8 43 8.89543 43 10V38C43 39.1046 42.1046 40 41 40H7C5.89543 40 5 39.1046 5 38V10Z" stroke="#FFFFFF" stroke-width="2.286912808177991" stroke-linecap="round" stroke-linejoin="round"></path><path fill-rule="evenodd" clip-rule="evenodd" d="M14.5 18C15.3284 18 16 17.3284 16 16.5C16 15.6716 15.3284 15 14.5 15C13.6716 15 13 15.6716 13 16.5C13 17.3284 13.6716 18 14.5 18Z" stroke="#FFFFFF" stroke-width="2.286912808177991" stroke-linecap="round" stroke-linejoin="round"></path><path d="M15 24L20 28L26 21L43 34V38C43 39.1046 42.1046 40 41 40H7C5.89543 40 5 39.1046 5 38V34L15 24Z" fill="none" stroke="#FFFFFF" stroke-width="2.286912808177991" stroke-linejoin="round" fill-opacity="1"></path></svg></svg>