<?xml version="1.0" encoding="UTF-8"?>
<svg xmlns="http://www.w3.org/2000/svg" xmlns:xlink="http://www.w3.org/1999/xlink" width="26px" height="26px" viewBox="0 0 26 26" version="1.1">
<g id="surface1">
<path style=" stroke:none;fill-rule:nonzero;fill:rgb(100%,100%,100%);fill-opacity:1;" d="M 21.980469 19.597656 C 26.597656 14.097656 26.707031 6.722656 22.226562 3.128906 C 17.75 -0.464844 10.375 1.078125 5.757812 6.582031 C 1.140625 12.082031 1.03125 19.457031 5.511719 23.050781 C 9.992188 26.644531 17.363281 25.101562 21.980469 19.597656 Z M 21.980469 19.597656 "/>
<path style="fill:none;stroke-width:2;stroke-linecap:butt;stroke-linejoin:miter;stroke:rgb(0%,0%,0%);stroke-opacity:1;stroke-miterlimit:4;" d="M 39.00069 0.00472189 C 38.999962 -27.05446 21.537633 -49.006762 0.00276881 -49.004178 C -21.532096 -49.001593 -39.005056 -27.061313 -39.004329 -0.00213145 C -39.003601 27.05705 -21.529761 48.999949 0.00510358 48.997365 C 21.539968 48.99478 39.001417 27.063903 39.00069 0.00472189 Z M 39.00069 0.00472189 " transform="matrix(0.202776,0.162732,-0.167174,0.199212,13.869726,13.089882)"/>
<path style=" stroke:none;fill-rule:nonzero;fill:rgb(99.607843%,81.176472%,2.745098%);fill-opacity:1;" d="M 8.640625 7.363281 L 20.359375 17.65625 C 20.578125 17.847656 20.597656 18.175781 20.40625 18.390625 L 19.722656 19.171875 C 19.53125 19.390625 19.203125 19.410156 18.988281 19.21875 L 7.265625 8.925781 C 7.050781 8.738281 7.03125 8.40625 7.21875 8.191406 L 7.90625 7.410156 C 8.09375 7.195312 8.425781 7.171875 8.640625 7.363281 Z M 8.640625 7.363281 "/>
<path style=" stroke:none;fill-rule:nonzero;fill:rgb(99.607843%,81.176472%,2.745098%);fill-opacity:1;" d="M 6.300781 11.523438 L 16.457031 20.445312 C 16.671875 20.632812 16.695312 20.964844 16.503906 21.179688 L 15.820312 21.960938 C 15.628906 22.175781 15.300781 22.199219 15.085938 22.007812 L 4.925781 13.085938 C 4.710938 12.894531 4.691406 12.566406 4.878906 12.351562 L 5.566406 11.570312 C 5.753906 11.355469 6.085938 11.332031 6.300781 11.523438 Z M 6.300781 11.523438 "/>
<path style=" stroke:none;fill-rule:nonzero;fill:rgb(99.607843%,81.176472%,2.745098%);fill-opacity:1;" d="M 12.539062 4.761719 L 22.699219 13.683594 C 22.914062 13.875 22.933594 14.203125 22.746094 14.417969 L 22.058594 15.199219 C 21.871094 15.417969 21.542969 15.4375 21.324219 15.246094 L 11.167969 6.324219 C 10.953125 6.136719 10.929688 5.808594 11.121094 5.59375 L 11.804688 4.8125 C 11.996094 4.59375 12.324219 4.574219 12.539062 4.761719 Z M 12.539062 4.761719 "/>
<path style=" stroke:none;fill-rule:evenodd;fill:rgb(0%,0%,0%);fill-opacity:1;" d="M 0.851562 25.503906 L 5.84375 22.976562 L 3.914062 21.066406 Z M 0.851562 25.503906 "/>
<path style=" stroke:none;fill-rule:nonzero;fill:rgb(100%,100%,100%);fill-opacity:1;" d="M 5.453125 1.890625 C 3.777344 1.023438 1.878906 1.21875 1.210938 2.324219 C 0.539062 3.433594 1.355469 5.03125 3.03125 5.898438 C 4.703125 6.765625 6.601562 6.574219 7.273438 5.464844 C 7.941406 4.359375 7.125 2.757812 5.453125 1.890625 Z M 5.453125 1.890625 "/>
<path style="fill:none;stroke-width:2;stroke-linecap:butt;stroke-linejoin:miter;stroke:rgb(0%,0%,0%);stroke-opacity:1;stroke-miterlimit:4;" d="M 8.006966 -0.00695395 C 8.00596 -6.706345 4.423629 -12.131304 0.00187494 -12.126811 C -4.426804 -12.135204 -8.002845 -6.701744 -8.001839 -0.00235268 C -8.000833 6.697038 -4.418502 12.121997 -0.00319365 12.138179 C 4.418561 12.133687 8.007972 6.692437 8.006966 -0.00695395 Z M 8.006966 -0.00695395 " transform="matrix(0.134514,-0.222499,0.230878,0.119564,4.240964,3.895658)"/>
<path style=" stroke:none;fill-rule:nonzero;fill:rgb(0%,0%,0%);fill-opacity:1;" d="M 22.359375 7.019531 C 22.359375 6.445312 22.128906 5.980469 21.839844 5.980469 C 21.554688 5.980469 21.320312 6.445312 21.320312 7.019531 C 21.320312 7.59375 21.554688 8.058594 21.839844 8.058594 C 22.128906 8.058594 22.359375 7.59375 22.359375 7.019531 Z M 22.359375 7.019531 "/>
</g>
</svg>
